<?xml version="1.0" encoding="UTF-8"?>
<svg id="Ebene_1" data-name="Ebene 1" xmlns="http://www.w3.org/2000/svg" xmlns:xlink="http://www.w3.org/1999/xlink" viewBox="0 0 552.76 212.6">
  <defs>
    <style>
      .cls-1 {
        fill: #99d5ec;
      }

      .cls-1, .cls-2, .cls-3 {
        stroke-width: 0px;
      }

      .cls-2 {
        fill: none;
      }

      .cls-4 {
        clip-path: url(#clippath);
      }

      .cls-3 {
        fill: #1d1d1b;
      }
    </style>
    <clipPath id="clippath">
      <rect class="cls-2" x="15.7" y="9.94" width="523.18" height="191.59"/>
    </clipPath>
  </defs>
  <mask id="slice">
    <rect fill="white" x="15.7" y="9.94" width="523.18" height="191.59"/>
    <path fill="black" d="M67.35,120.5l-30.52-64.22c-.11-.31,0-1.07.17-1.31l23.79-26.84c1.93-2.18,1.73-5.51-.45-7.44-2.18-1.93-5.51-1.73-7.44.45l-23.79,26.84c-2.98,3.36-3.74,8.74-1.81,12.8l30.53,64.24c.9,1.9,2.79,3.01,4.76,3.01.76,0,1.53-.16,2.26-.51,2.63-1.25,3.75-4.39,2.5-7.02M104.2,41.16c.91-2.76-.6-5.74-3.36-6.65-2.77-.91-5.74.6-6.65,3.37l-20.05,61.22c-.9,2.76.6,5.74,3.37,6.65.55.18,1.1.26,1.64.26,2.21,0,4.28-1.41,5-3.63l20.05-61.22ZM143.2,47.98l-23.79-26.84c-1.93-2.18-5.26-2.38-7.44-.45-2.18,1.93-2.38,5.26-.45,7.43l23.77,26.82c.19.26.3,1.03.2,1.31l-30.53,64.24c-1.25,2.63-.13,5.77,2.5,7.02.73.35,1.5.51,2.26.51,1.97,0,3.86-1.11,4.76-3.01l30.53-64.24c1.93-4.06,1.16-9.44-1.81-12.8"/>
  </mask>
  <g class="cls-4">
    <path class="cls-1" d="M509.01,163.24v5.79h11.44v32.08h7.04v-32.08h11.39v-5.79h-29.88ZM477.62,163.24h-3.69v37.86h6.21v-23.25c0-.45-.01-.95-.04-1.5-.03-.55-.07-1.1-.12-1.66l19.79,25.22c.35.45.71.77,1.07.94.37.17.83.26,1.39.26h3.64v-37.86h-6.21v23.02c0,.51.01,1.05.04,1.64s.07,1.18.14,1.79l-19.87-25.32c-.19-.24-.37-.44-.52-.59-.16-.15-.32-.26-.48-.34-.17-.08-.35-.13-.56-.16-.21-.03-.47-.04-.79-.04M445.25,163.24v37.86h23.88v-5.63h-16.78v-10.71h13.22v-5.42h-13.22v-10.5h16.78v-5.6h-23.88ZM416.87,185.4l-11.31-21.03c-.14-.26-.29-.47-.45-.63-.16-.16-.33-.27-.51-.34-.18-.07-.39-.11-.61-.13-.23-.02-.5-.03-.81-.03h-5.32v37.86h6.21v-24.46c0-.47-.01-.98-.04-1.53-.03-.55-.08-1.11-.14-1.69l11.6,21.55c.26.49.6.87,1.02,1.14.42.27.91.41,1.47.41h.97c.56,0,1.05-.14,1.47-.41.42-.27.76-.65,1.02-1.14l11.44-21.47c-.05.56-.09,1.11-.12,1.65-.03.54-.04,1.04-.04,1.49v24.46h6.21v-37.86h-5.32c-.31,0-.59,0-.81.03-.23.02-.43.06-.61.13-.18.07-.35.18-.5.34-.15.16-.29.37-.43.63l-11.21,20.97c-.3.56-.58,1.14-.84,1.75-.26.61-.52,1.23-.76,1.86-.24-.61-.49-1.22-.75-1.82s-.53-1.18-.83-1.74M373.72,168.69h5.29c1.29,0,2.42.15,3.38.46.96.31,1.76.75,2.38,1.32.63.58,1.1,1.28,1.41,2.1.31.82.47,1.74.47,2.75,0,1.07-.16,2.03-.47,2.89s-.79,1.6-1.41,2.2c-.63.6-1.42,1.07-2.38,1.39s-2.09.49-3.38.49h-5.29v-13.59ZM379.01,187.78c2.46,0,4.61-.3,6.44-.92s3.36-1.47,4.58-2.57c1.22-1.1,2.14-2.41,2.75-3.94.61-1.53.92-3.21.92-5.04s-.29-3.39-.86-4.87c-.58-1.48-1.47-2.76-2.67-3.82-1.2-1.06-2.73-1.89-4.58-2.49-1.85-.59-4.04-.89-6.57-.89h-12.33v37.86h7.04v-13.33h5.29ZM354.14,187.76c-.55,1.65-1.34,3.05-2.37,4.19s-2.28,2.02-3.76,2.63c-1.48.61-3.14.92-4.99.92s-3.52-.31-5-.92c-1.48-.61-2.75-1.49-3.78-2.63-1.04-1.14-1.84-2.54-2.4-4.19-.56-1.65-.84-3.51-.84-5.59s.28-3.94.84-5.59c.56-1.65,1.36-3.05,2.4-4.2,1.04-1.15,2.3-2.03,3.78-2.65,1.48-.61,3.15-.92,5-.92s3.51.31,4.99.92c1.47.61,2.73,1.49,3.76,2.65s1.82,2.55,2.37,4.2c.55,1.65.82,3.51.82,5.59s-.27,3.94-.82,5.59M360.81,174.46c-.93-2.37-2.23-4.41-3.9-6.13-1.68-1.72-3.69-3.07-6.05-4.04-2.36-.98-4.97-1.47-7.83-1.47s-5.48.48-7.84,1.45c-2.37.97-4.39,2.32-6.08,4.04-1.68,1.73-2.99,3.77-3.91,6.14-.93,2.36-1.39,4.93-1.39,7.71s.46,5.35,1.39,7.71c.92,2.37,2.23,4.41,3.91,6.14,1.68,1.73,3.71,3.08,6.08,4.05,2.36.97,4.98,1.45,7.84,1.45s5.47-.48,7.83-1.45c2.36-.97,4.37-2.32,6.05-4.05,1.68-1.73,2.98-3.77,3.9-6.14.93-2.37,1.39-4.94,1.39-7.71s-.46-5.35-1.39-7.71M309.25,163.24h-7.04v37.86h22.2v-5.81h-15.16v-32.05ZM273.54,163.24v37.86h23.88v-5.63h-16.78v-10.71h13.22v-5.42h-13.22v-10.5h16.78v-5.6h-23.88ZM249.24,201.11h6.36l15.29-37.86h-5.68c-.59,0-1.09.17-1.49.5-.4.33-.68.7-.84,1.1l-8.88,23.09c-.59,1.54-1.09,3.31-1.49,5.32-.24-1-.5-1.94-.77-2.84-.27-.9-.55-1.72-.85-2.47l-8.9-23.09c-.19-.47-.48-.85-.86-1.15-.38-.3-.88-.44-1.49-.44h-5.68l15.29,37.86ZM208.99,163.24v37.86h23.88v-5.63h-16.78v-10.71h13.22v-5.42h-13.22v-10.5h16.78v-5.6h-23.88ZM196.74,187.76c-.56,1.65-1.35,3.05-2.38,4.19s-2.28,2.02-3.76,2.63c-1.48.61-3.14.92-4.99.92h-7.36v-26.66h7.36c1.85,0,3.51.31,4.99.92,1.47.61,2.73,1.49,3.76,2.63s1.82,2.54,2.38,4.19c.56,1.65.84,3.51.84,5.59s-.28,3.94-.84,5.59M203.39,174.53c-.93-2.32-2.23-4.32-3.9-5.98-1.68-1.67-3.69-2.97-6.05-3.9-2.36-.93-4.97-1.4-7.83-1.4h-14.45v37.86h14.45c2.86,0,5.47-.46,7.83-1.39,2.36-.92,4.37-2.22,6.05-3.9,1.67-1.68,2.98-3.67,3.9-6,.92-2.32,1.39-4.87,1.39-7.65s-.46-5.32-1.39-7.65"/>
    <path class="cls-1" d="M500.53,58.54h-5.75v79.72h43.55v-4.9h-37.8V58.54ZM426.67,56.79v81.47h51.38v-12.11h-36.11v-23.04h28.45v-11.66h-28.45v-22.59h36.11v-12.06h-51.38ZM326.49,138.26h13.69l17.97-55.67c.23-.71.46-1.48.7-2.31.24-.82.48-1.71.7-2.65.23.94.46,1.82.71,2.65.24.83.48,1.6.7,2.31l17.8,55.67h13.69l25.3-81.47h-11.89c-1.28,0-2.37.34-3.27,1.01-.9.68-1.49,1.48-1.75,2.42l-13.86,48.74c-.3,1.16-.59,2.42-.87,3.78-.28,1.35-.55,2.76-.82,4.22-.6-2.93-1.32-5.6-2.14-8l-15.89-48.74c-.34-1.05-.94-1.89-1.8-2.51-.86-.62-1.95-.93-3.27-.93h-4.45c-1.28,0-2.36.36-3.24,1.07-.88.71-1.48,1.5-1.77,2.37l-16,48.74c-.41,1.2-.8,2.51-1.15,3.92-.36,1.41-.68,2.9-.99,4.48-.26-1.58-.54-3.07-.82-4.48-.28-1.41-.59-2.71-.93-3.92l-13.86-48.74c-.3-1.05-.89-1.89-1.77-2.51-.88-.62-1.98-.93-3.29-.93h-12.73l25.3,81.47ZM251.65,124.57c-2.31-.98-4.25-2.36-5.83-4.14-1.58-1.78-2.79-3.93-3.63-6.45-.85-2.52-1.27-5.33-1.27-8.45v-48.73h-15.15v48.79c0,4.85.78,9.33,2.34,13.44,1.56,4.11,3.79,7.66,6.71,10.65,2.91,2.99,6.45,5.32,10.62,6.99,4.17,1.67,8.86,2.51,14.09,2.51s9.92-.84,14.08-2.51c4.17-1.67,7.72-4,10.65-6.99,2.93-2.99,5.17-6.54,6.73-10.65,1.56-4.11,2.34-8.59,2.34-13.44v-48.79h-15.15v48.79c0,3.12-.42,5.94-1.27,8.45-.85,2.52-2.07,4.66-3.66,6.42-1.6,1.77-3.55,3.14-5.86,4.11-2.31.98-4.93,1.47-7.86,1.47s-5.55-.49-7.86-1.47M206.66,58.54h-5.8v53.24c0,3.83-.42,7.17-1.27,10-.84,2.84-2.08,5.18-3.69,7.04-1.62,1.86-3.57,3.24-5.86,4.14-2.29.9-4.86,1.35-7.72,1.35-1.13,0-2.11-.07-2.96-.2-.85-.13-1.6-.27-2.25-.42-.66-.15-1.22-.29-1.69-.42-.47-.13-.87-.2-1.21-.2-.53,0-.89.13-1.1.39-.21.26-.35.56-.42.9-.04.53-.08,1.05-.14,1.58-.06.53-.12,1.05-.2,1.58,1.84.56,3.62.98,5.35,1.24,1.73.26,3.44.39,5.13.39,3.68,0,6.99-.59,9.94-1.77,2.95-1.18,5.45-2.94,7.49-5.27s3.62-5.2,4.73-8.62c1.11-3.42,1.66-7.36,1.66-11.83v-53.13Z"/>
    <path class="cls-1" d="M46.75,16.28c3.15-3.5,9.53-6.34,14.24-6.34h50.61c4.71,0,11.08,2.85,14.22,6.36l27.7,30.97c3.14,3.51,4.03,9.8,1.99,14.05l-65.64,136.6c-2.04,4.25-5.35,4.25-7.39,0L16.8,61.32c-2.04-4.25-1.14-10.53,2.01-14.03l27.94-31.01Z" mask="url(#slice)" />
  </g>
</svg>